<?xml version="1.0" encoding="UTF-8" standalone="no"?><!DOCTYPE svg PUBLIC "-//W3C//DTD SVG 1.1//EN" "http://www.w3.org/Graphics/SVG/1.1/DTD/svg11.dtd"><svg width="100%" height="100%" viewBox="0 0 82 100" version="1.1" xmlns="http://www.w3.org/2000/svg" xmlns:xlink="http://www.w3.org/1999/xlink" xml:space="preserve" xmlns:serif="http://www.serif.com/" style="fill-rule:evenodd;clip-rule:evenodd;stroke-linejoin:round;stroke-miterlimit:2;"><g id="Left-Black-Logo-Large"><path id="_-" serif:id="" d="M41.894,23.077c4.514,-0 10.172,-3.052 13.541,-7.12c3.052,-3.687 5.277,-8.837 5.277,-13.986c0,-0.7 -0.064,-1.399 -0.191,-1.971c-5.022,0.191 -11.061,3.369 -14.685,7.629c-2.861,3.242 -5.467,8.328 -5.467,13.541c-0,0.763 0.127,1.525 0.19,1.78c0.318,0.063 0.827,0.127 1.335,0.127Zm-15.893,76.923c6.167,0 8.9,-4.132 16.593,-4.132c7.819,-0 9.536,4.005 16.402,4.005c6.738,-0 11.252,-6.23 15.511,-12.333c4.768,-6.993 6.739,-13.859 6.866,-14.177c-0.445,-0.127 -13.35,-5.404 -13.35,-20.216c-0,-12.842 10.172,-18.627 10.744,-19.072c-6.739,-9.663 -16.974,-9.917 -19.771,-9.917c-7.566,-0 -13.732,4.577 -17.61,4.577c-4.196,-0 -9.727,-4.323 -16.275,-4.323c-12.46,-0 -25.111,10.299 -25.111,29.752c0,12.079 4.704,24.857 10.49,33.121c4.958,6.993 9.281,12.715 15.511,12.715Z" fill="currentColor" style="fill-rule:nonzero;"/></g></svg>