<?xml version="1.0" encoding="UTF-8" standalone="no"?><!DOCTYPE svg PUBLIC "-//W3C//DTD SVG 1.1//EN" "http://www.w3.org/Graphics/SVG/1.1/DTD/svg11.dtd"><svg width="100%" height="100%" viewBox="0 0 75 75" version="1.1" xmlns="http://www.w3.org/2000/svg" xmlns:xlink="http://www.w3.org/1999/xlink" xml:space="preserve" xmlns:serif="http://www.serif.com/" style="fill-rule:evenodd;clip-rule:evenodd;stroke-linejoin:round;stroke-miterlimit:2;"><g id="Google-Button"><g id="btn_google_light_focus"><g id="logo_googleg_48dp"><path id="Shape" d="M73.5,38.352c0,-2.659 -0.239,-5.216 -0.682,-7.67l-35.318,-0l0,14.506l20.182,-0c-0.87,4.687 -3.512,8.659 -7.483,11.318l-0,9.409l12.119,-0c7.091,-6.529 11.182,-16.142 11.182,-27.563Z" style="fill:#4285f4;"/><path id="Shape1" serif:id="Shape" d="M37.5,75c10.125,0 18.614,-3.358 24.818,-9.085l-12.119,-9.409c-3.358,2.25 -7.654,3.579 -12.699,3.579c-9.767,0 -18.034,-6.596 -20.983,-15.46l-12.528,0l-0,9.716c6.17,12.256 18.852,20.659 33.511,20.659Z" style="fill:#34a853;"/><path id="Shape2" serif:id="Shape" d="M16.517,44.625c-0.75,-2.25 -1.176,-4.653 -1.176,-7.125c-0,-2.472 0.426,-4.875 1.176,-7.125l0,-9.716l-12.528,0c-2.54,5.063 -3.989,10.79 -3.989,16.841c0,6.051 1.449,11.778 3.989,16.841l12.528,-9.716Z" style="fill:#fbbc05;"/><path id="Shape3" serif:id="Shape" d="M37.5,14.915c5.506,-0 10.449,1.892 14.335,5.608l10.756,-10.756c-6.494,-6.051 -14.983,-9.767 -25.091,-9.767c-14.659,-0 -27.341,8.403 -33.511,20.659l12.528,9.716c2.949,-8.864 11.216,-15.46 20.983,-15.46Z" style="fill:#ea4335;"/><rect id="Shape4" serif:id="Shape" x="0" y="0" width="75" height="75" style="fill:none;"/></g></g></g></svg>